<mxfile host="Electron" modified="2023-10-22T15:10:54.797Z" agent="Mozilla/5.0 (Windows NT 10.0; Win64; x64) AppleWebKit/537.36 (KHTML, like Gecko) draw.io/22.0.2 Chrome/114.0.5735.289 Electron/25.8.4 Safari/537.36" etag="QBuQnKALV9IsApdGhf9A" version="22.0.2" type="device">
  <diagram name="Page-1" id="5ZZPXkkkmvZoAoPfYjoD">
    <mxGraphModel dx="1098" dy="820" grid="1" gridSize="10" guides="1" tooltips="1" connect="1" arrows="1" fold="1" page="1" pageScale="1" pageWidth="827" pageHeight="1169" math="0" shadow="0">
      <root>
        <mxCell id="0" />
        <mxCell id="1" parent="0" />
        <mxCell id="P1hcf5iz_HZhvlH5lLM3-1" value="UC05: Criar interação alimentar" style="text;html=1;strokeColor=none;fillColor=none;align=center;verticalAlign=middle;whiteSpace=wrap;rounded=0;fontSize=14;fontStyle=1" parent="1" vertex="1">
          <mxGeometry x="215" y="20" width="227" height="30" as="geometry" />
        </mxCell>
        <mxCell id="P1hcf5iz_HZhvlH5lLM3-2" value=":Administrador" style="shape=umlActor;verticalLabelPosition=bottom;verticalAlign=top;html=1;outlineConnect=0;" parent="1" vertex="1">
          <mxGeometry x="22" y="40" width="54" height="110" as="geometry" />
        </mxCell>
        <mxCell id="P1hcf5iz_HZhvlH5lLM3-3" value=":Sistema" style="rounded=0;whiteSpace=wrap;html=1;strokeWidth=1;fontSize=15;fontStyle=1" parent="1" vertex="1">
          <mxGeometry x="560" y="90" width="149" height="70" as="geometry" />
        </mxCell>
        <mxCell id="P1hcf5iz_HZhvlH5lLM3-4" value="" style="endArrow=none;dashed=1;html=1;rounded=0;" parent="1" edge="1">
          <mxGeometry width="50" height="50" relative="1" as="geometry">
            <mxPoint x="40" y="180" as="sourcePoint" />
            <mxPoint x="40" y="890" as="targetPoint" />
          </mxGeometry>
        </mxCell>
        <mxCell id="P1hcf5iz_HZhvlH5lLM3-5" value="" style="endArrow=none;dashed=1;html=1;rounded=0;" parent="1" edge="1">
          <mxGeometry width="50" height="50" relative="1" as="geometry">
            <mxPoint x="629" y="176" as="sourcePoint" />
            <mxPoint x="630" y="890.4444444444445" as="targetPoint" />
          </mxGeometry>
        </mxCell>
        <mxCell id="P1hcf5iz_HZhvlH5lLM3-6" value="" style="endArrow=classic;html=1;rounded=0;" parent="1" edge="1">
          <mxGeometry width="50" height="50" relative="1" as="geometry">
            <mxPoint x="40" y="200" as="sourcePoint" />
            <mxPoint x="630" y="200" as="targetPoint" />
          </mxGeometry>
        </mxCell>
        <mxCell id="P1hcf5iz_HZhvlH5lLM3-7" value="CriarInteracaoAlimentar()" style="text;html=1;strokeColor=none;fillColor=none;align=center;verticalAlign=middle;whiteSpace=wrap;rounded=0;" parent="1" vertex="1">
          <mxGeometry x="268.5" y="171" width="139" height="30" as="geometry" />
        </mxCell>
        <mxCell id="P1hcf5iz_HZhvlH5lLM3-13" value="" style="endArrow=classic;html=1;rounded=0;dashed=1;" parent="1" edge="1">
          <mxGeometry width="50" height="50" relative="1" as="geometry">
            <mxPoint x="630" y="223" as="sourcePoint" />
            <mxPoint x="42" y="223" as="targetPoint" />
          </mxGeometry>
        </mxCell>
        <mxCell id="P1hcf5iz_HZhvlH5lLM3-14" value="Pede os detalhes da Interação Alimentar" style="text;html=1;strokeColor=none;fillColor=none;align=center;verticalAlign=middle;whiteSpace=wrap;rounded=0;" parent="1" vertex="1">
          <mxGeometry x="209.75" y="201" width="237.5" height="30" as="geometry" />
        </mxCell>
        <mxCell id="P1hcf5iz_HZhvlH5lLM3-17" value="&lt;b&gt;&lt;font style=&quot;font-size: 14px;&quot;&gt;alt&lt;/font&gt;&lt;/b&gt;" style="shape=umlFrame;whiteSpace=wrap;html=1;pointerEvents=0;width=60;height=20;" parent="1" vertex="1">
          <mxGeometry x="23" y="493" width="787" height="317" as="geometry" />
        </mxCell>
        <mxCell id="P1hcf5iz_HZhvlH5lLM3-18" value="[Dados em falta]" style="text;html=1;strokeColor=none;fillColor=none;align=center;verticalAlign=middle;whiteSpace=wrap;rounded=0;fontStyle=1;fontSize=12;" parent="1" vertex="1">
          <mxGeometry x="78" y="495" width="110" height="30" as="geometry" />
        </mxCell>
        <mxCell id="P1hcf5iz_HZhvlH5lLM3-31" value="" style="endArrow=classic;html=1;rounded=0;" parent="1" edge="1">
          <mxGeometry width="50" height="50" relative="1" as="geometry">
            <mxPoint x="40" y="261" as="sourcePoint" />
            <mxPoint x="630" y="261" as="targetPoint" />
          </mxGeometry>
        </mxCell>
        <mxCell id="P1hcf5iz_HZhvlH5lLM3-33" value="" style="endArrow=classic;html=1;rounded=0;dashed=1;" parent="1" edge="1">
          <mxGeometry width="50" height="50" relative="1" as="geometry">
            <mxPoint x="630" y="473" as="sourcePoint" />
            <mxPoint x="40" y="475" as="targetPoint" />
          </mxGeometry>
        </mxCell>
        <mxCell id="P1hcf5iz_HZhvlH5lLM3-34" value="Sistema pede Confirmação de Criação ao Administrador" style="text;html=1;strokeColor=none;fillColor=none;align=center;verticalAlign=middle;whiteSpace=wrap;rounded=0;" parent="1" vertex="1">
          <mxGeometry x="180" y="452" width="310" height="30" as="geometry" />
        </mxCell>
        <mxCell id="P1hcf5iz_HZhvlH5lLM3-35" value="IndicarNomeSubstanciaAtiva(nomeSA)" style="text;html=1;strokeColor=none;fillColor=none;align=center;verticalAlign=middle;whiteSpace=wrap;rounded=0;" parent="1" vertex="1">
          <mxGeometry x="240" y="235" width="199" height="30" as="geometry" />
        </mxCell>
        <mxCell id="P1hcf5iz_HZhvlH5lLM3-36" value="" style="endArrow=classic;html=1;rounded=0;" parent="1" edge="1">
          <mxGeometry width="50" height="50" relative="1" as="geometry">
            <mxPoint x="40" y="294" as="sourcePoint" />
            <mxPoint x="630" y="294" as="targetPoint" />
          </mxGeometry>
        </mxCell>
        <mxCell id="P1hcf5iz_HZhvlH5lLM3-37" value="IndicarExplicacaoDetalhada(explicacao)" style="text;html=1;strokeColor=none;fillColor=none;align=center;verticalAlign=middle;whiteSpace=wrap;rounded=0;" parent="1" vertex="1">
          <mxGeometry x="228.75" y="265" width="221.5" height="30" as="geometry" />
        </mxCell>
        <mxCell id="P1hcf5iz_HZhvlH5lLM3-38" value="" style="endArrow=classic;html=1;rounded=0;" parent="1" edge="1">
          <mxGeometry width="50" height="50" relative="1" as="geometry">
            <mxPoint x="40" y="330" as="sourcePoint" />
            <mxPoint x="630" y="330" as="targetPoint" />
          </mxGeometry>
        </mxCell>
        <mxCell id="P1hcf5iz_HZhvlH5lLM3-39" value="IndicarAlimentoEnvolvido(alimento)" style="text;html=1;strokeColor=none;fillColor=none;align=center;verticalAlign=middle;whiteSpace=wrap;rounded=0;" parent="1" vertex="1">
          <mxGeometry x="240" y="304" width="199" height="30" as="geometry" />
        </mxCell>
        <mxCell id="P1hcf5iz_HZhvlH5lLM3-40" value="" style="endArrow=classic;html=1;rounded=0;" parent="1" edge="1">
          <mxGeometry width="50" height="50" relative="1" as="geometry">
            <mxPoint x="40" y="363" as="sourcePoint" />
            <mxPoint x="630" y="363" as="targetPoint" />
          </mxGeometry>
        </mxCell>
        <mxCell id="P1hcf5iz_HZhvlH5lLM3-41" value="IndicarEfeitosInteracao(efeitos)" style="text;html=1;strokeColor=none;fillColor=none;align=center;verticalAlign=middle;whiteSpace=wrap;rounded=0;" parent="1" vertex="1">
          <mxGeometry x="240" y="337" width="199" height="30" as="geometry" />
        </mxCell>
        <mxCell id="P1hcf5iz_HZhvlH5lLM3-42" value="" style="endArrow=classic;html=1;rounded=0;" parent="1" edge="1">
          <mxGeometry width="50" height="50" relative="1" as="geometry">
            <mxPoint x="39.5" y="397" as="sourcePoint" />
            <mxPoint x="629.5" y="397" as="targetPoint" />
          </mxGeometry>
        </mxCell>
        <mxCell id="P1hcf5iz_HZhvlH5lLM3-43" value="IndicarReferenciaBibliografica(referencia)" style="text;html=1;strokeColor=none;fillColor=none;align=center;verticalAlign=middle;whiteSpace=wrap;rounded=0;" parent="1" vertex="1">
          <mxGeometry x="222.25" y="371" width="231.5" height="30" as="geometry" />
        </mxCell>
        <mxCell id="P1hcf5iz_HZhvlH5lLM3-44" value="" style="endArrow=classic;html=1;rounded=0;" parent="1" edge="1">
          <mxGeometry width="50" height="50" relative="1" as="geometry">
            <mxPoint x="40" y="428" as="sourcePoint" />
            <mxPoint x="630" y="428" as="targetPoint" />
          </mxGeometry>
        </mxCell>
        <mxCell id="P1hcf5iz_HZhvlH5lLM3-45" value="CriarInteracaoAlimentarComDadosIndicado()" style="text;html=1;strokeColor=none;fillColor=none;align=center;verticalAlign=middle;whiteSpace=wrap;rounded=0;" parent="1" vertex="1">
          <mxGeometry x="208" y="402" width="260" height="30" as="geometry" />
        </mxCell>
        <mxCell id="P1hcf5iz_HZhvlH5lLM3-47" value="ValidacaoDadosCriacaoIA()" style="html=1;align=left;spacingLeft=2;endArrow=block;rounded=0;edgeStyle=orthogonalEdgeStyle;curved=0;rounded=0;" parent="1" edge="1">
          <mxGeometry relative="1" as="geometry">
            <mxPoint x="630" y="435" as="sourcePoint" />
            <Array as="points">
              <mxPoint x="660" y="465" />
            </Array>
            <mxPoint x="630" y="465" as="targetPoint" />
          </mxGeometry>
        </mxCell>
        <mxCell id="P1hcf5iz_HZhvlH5lLM3-48" value="" style="endArrow=classic;html=1;rounded=0;dashed=1;" parent="1" edge="1">
          <mxGeometry width="50" height="50" relative="1" as="geometry">
            <mxPoint x="630" y="521" as="sourcePoint" />
            <mxPoint x="40" y="523" as="targetPoint" />
          </mxGeometry>
        </mxCell>
        <mxCell id="P1hcf5iz_HZhvlH5lLM3-49" value="Informa que há dados em falta" style="text;html=1;strokeColor=none;fillColor=none;align=center;verticalAlign=middle;whiteSpace=wrap;rounded=0;" parent="1" vertex="1">
          <mxGeometry x="238.5" y="498" width="199" height="30" as="geometry" />
        </mxCell>
        <mxCell id="P1hcf5iz_HZhvlH5lLM3-50" value="" style="endArrow=classic;html=1;rounded=0;dashed=1;" parent="1" edge="1">
          <mxGeometry width="50" height="50" relative="1" as="geometry">
            <mxPoint x="630" y="553" as="sourcePoint" />
            <mxPoint x="40" y="553" as="targetPoint" />
          </mxGeometry>
        </mxCell>
        <mxCell id="P1hcf5iz_HZhvlH5lLM3-53" value="" style="endArrow=none;dashed=1;html=1;rounded=0;exitX=0.002;exitY=0.383;exitDx=0;exitDy=0;exitPerimeter=0;strokeWidth=2;" parent="1" edge="1">
          <mxGeometry width="50" height="50" relative="1" as="geometry">
            <mxPoint x="23.340000000000032" y="567.58" as="sourcePoint" />
            <mxPoint x="810" y="570" as="targetPoint" />
          </mxGeometry>
        </mxCell>
        <mxCell id="P1hcf5iz_HZhvlH5lLM3-54" value="[Substância Ativa não existe]" style="text;html=1;strokeColor=none;fillColor=none;align=center;verticalAlign=middle;whiteSpace=wrap;rounded=0;fontStyle=1;fontSize=12;" parent="1" vertex="1">
          <mxGeometry x="52.25" y="563" width="170" height="30" as="geometry" />
        </mxCell>
        <mxCell id="P1hcf5iz_HZhvlH5lLM3-55" value="" style="endArrow=classic;html=1;rounded=0;dashed=1;" parent="1" edge="1">
          <mxGeometry width="50" height="50" relative="1" as="geometry">
            <mxPoint x="630" y="598" as="sourcePoint" />
            <mxPoint x="40" y="598" as="targetPoint" />
          </mxGeometry>
        </mxCell>
        <mxCell id="P1hcf5iz_HZhvlH5lLM3-56" value="Informa que a Substância Ativa não existe" style="text;html=1;strokeColor=none;fillColor=none;align=center;verticalAlign=middle;whiteSpace=wrap;rounded=0;" parent="1" vertex="1">
          <mxGeometry x="228" y="574" width="230" height="30" as="geometry" />
        </mxCell>
        <mxCell id="P1hcf5iz_HZhvlH5lLM3-57" value="" style="endArrow=classic;html=1;rounded=0;" parent="1" edge="1">
          <mxGeometry width="50" height="50" relative="1" as="geometry">
            <mxPoint x="40" y="625" as="sourcePoint" />
            <mxPoint x="630" y="625" as="targetPoint" />
          </mxGeometry>
        </mxCell>
        <mxCell id="P1hcf5iz_HZhvlH5lLM3-58" value="CorrigirSubstanciaAtiva(nomeSA)" style="text;html=1;strokeColor=none;fillColor=none;align=center;verticalAlign=middle;whiteSpace=wrap;rounded=0;" parent="1" vertex="1">
          <mxGeometry x="95" y="601" width="500" height="30" as="geometry" />
        </mxCell>
        <mxCell id="P1hcf5iz_HZhvlH5lLM3-59" value="" style="endArrow=none;dashed=1;html=1;rounded=0;exitX=0.002;exitY=0.383;exitDx=0;exitDy=0;exitPerimeter=0;entryX=1.003;entryY=0.465;entryDx=0;entryDy=0;entryPerimeter=0;strokeWidth=2;" parent="1" target="P1hcf5iz_HZhvlH5lLM3-17" edge="1">
          <mxGeometry width="50" height="50" relative="1" as="geometry">
            <mxPoint x="23.340000000000032" y="635.58" as="sourcePoint" />
            <mxPoint x="692" y="634.0200000000001" as="targetPoint" />
          </mxGeometry>
        </mxCell>
        <mxCell id="P1hcf5iz_HZhvlH5lLM3-60" value="[Interação Alimentar já existe]" style="text;html=1;strokeColor=none;fillColor=none;align=center;verticalAlign=middle;whiteSpace=wrap;rounded=0;fontStyle=1;fontSize=12;" parent="1" vertex="1">
          <mxGeometry x="52.25" y="631" width="177.75" height="30" as="geometry" />
        </mxCell>
        <mxCell id="P1hcf5iz_HZhvlH5lLM3-61" value="" style="endArrow=classic;html=1;rounded=0;dashed=1;" parent="1" edge="1">
          <mxGeometry width="50" height="50" relative="1" as="geometry">
            <mxPoint x="630" y="664" as="sourcePoint" />
            <mxPoint x="40" y="666" as="targetPoint" />
          </mxGeometry>
        </mxCell>
        <mxCell id="P1hcf5iz_HZhvlH5lLM3-62" value="Informa que a Interação Alimentar já existe" style="text;html=1;strokeColor=none;fillColor=none;align=center;verticalAlign=middle;whiteSpace=wrap;rounded=0;" parent="1" vertex="1">
          <mxGeometry x="219.13" y="643" width="247.75" height="30" as="geometry" />
        </mxCell>
        <mxCell id="P1hcf5iz_HZhvlH5lLM3-65" value="Pede para inserir os dados em falta" style="text;html=1;strokeColor=none;fillColor=none;align=center;verticalAlign=middle;whiteSpace=wrap;rounded=0;" parent="1" vertex="1">
          <mxGeometry x="238.5" y="528" width="199" height="30" as="geometry" />
        </mxCell>
        <mxCell id="P1hcf5iz_HZhvlH5lLM3-71" value="" style="endArrow=none;dashed=1;html=1;rounded=0;entryX=0.999;entryY=0.582;entryDx=0;entryDy=0;entryPerimeter=0;strokeWidth=2;" parent="1" target="P1hcf5iz_HZhvlH5lLM3-17" edge="1">
          <mxGeometry width="50" height="50" relative="1" as="geometry">
            <mxPoint x="24" y="678" as="sourcePoint" />
            <mxPoint x="693" y="676.0000000000001" as="targetPoint" />
          </mxGeometry>
        </mxCell>
        <mxCell id="P1hcf5iz_HZhvlH5lLM3-75" value="[Farmacêutico cancela criação da IA]" style="text;html=1;strokeColor=none;fillColor=none;align=center;verticalAlign=middle;whiteSpace=wrap;rounded=0;fontStyle=1;fontSize=12;" parent="1" vertex="1">
          <mxGeometry x="47.25" y="677" width="217.75" height="30" as="geometry" />
        </mxCell>
        <mxCell id="P1hcf5iz_HZhvlH5lLM3-76" value="" style="endArrow=classic;html=1;rounded=0;" parent="1" edge="1">
          <mxGeometry width="50" height="50" relative="1" as="geometry">
            <mxPoint x="40" y="714" as="sourcePoint" />
            <mxPoint x="630" y="714" as="targetPoint" />
          </mxGeometry>
        </mxCell>
        <mxCell id="P1hcf5iz_HZhvlH5lLM3-77" value="CancelarCriacao()" style="text;html=1;strokeColor=none;fillColor=none;align=center;verticalAlign=middle;whiteSpace=wrap;rounded=0;" parent="1" vertex="1">
          <mxGeometry x="279" y="690" width="125" height="30" as="geometry" />
        </mxCell>
        <mxCell id="P1hcf5iz_HZhvlH5lLM3-78" value="" style="endArrow=none;dashed=1;html=1;rounded=0;entryX=1;entryY=0.722;entryDx=0;entryDy=0;entryPerimeter=0;strokeWidth=2;" parent="1" target="P1hcf5iz_HZhvlH5lLM3-17" edge="1">
          <mxGeometry width="50" height="50" relative="1" as="geometry">
            <mxPoint x="24" y="725" as="sourcePoint" />
            <mxPoint x="693" y="723.0000000000001" as="targetPoint" />
          </mxGeometry>
        </mxCell>
        <mxCell id="P1hcf5iz_HZhvlH5lLM3-80" value="[Todos os dados estão corretos]" style="text;html=1;strokeColor=none;fillColor=none;align=center;verticalAlign=middle;whiteSpace=wrap;rounded=0;fontStyle=1;fontSize=12;" parent="1" vertex="1">
          <mxGeometry x="44.25" y="730" width="192.75" height="15" as="geometry" />
        </mxCell>
        <mxCell id="P1hcf5iz_HZhvlH5lLM3-81" value="" style="endArrow=classic;html=1;rounded=0;" parent="1" edge="1">
          <mxGeometry width="50" height="50" relative="1" as="geometry">
            <mxPoint x="40" y="757" as="sourcePoint" />
            <mxPoint x="630" y="757" as="targetPoint" />
          </mxGeometry>
        </mxCell>
        <mxCell id="P1hcf5iz_HZhvlH5lLM3-82" value="ConfirmarCriacaoNovaIA()" style="text;html=1;strokeColor=none;fillColor=none;align=center;verticalAlign=middle;whiteSpace=wrap;rounded=0;" parent="1" vertex="1">
          <mxGeometry x="253" y="734" width="151" height="30" as="geometry" />
        </mxCell>
        <mxCell id="P1hcf5iz_HZhvlH5lLM3-87" value="CriacaoInteracaoAlimentar()" style="html=1;align=left;spacingLeft=2;endArrow=block;rounded=0;edgeStyle=orthogonalEdgeStyle;curved=0;rounded=0;" parent="1" edge="1">
          <mxGeometry relative="1" as="geometry">
            <mxPoint x="630" y="764" as="sourcePoint" />
            <Array as="points">
              <mxPoint x="660" y="794" />
            </Array>
            <mxPoint x="630" y="794" as="targetPoint" />
          </mxGeometry>
        </mxCell>
      </root>
    </mxGraphModel>
  </diagram>
</mxfile>
